<svg xmlns="http://www.w3.org/2000/svg" fill="#919eab" class="bi bi-badge-cc" viewBox="0 0 16 16" id="Badge-Cc--Streamline-Bootstrap" height="16" width="16"><desc>Badge Cc Streamline Icon: https://streamlinehq.com</desc><path d="M3.708 7.755c0 -1.111 0.488 -1.753 1.319 -1.753 0.681 0 1.138 0.47 1.186 1.107H7.36V7c-0.052 -1.186 -1.024 -2 -2.342 -2C3.414 5 2.5 6.05 2.5 7.751v0.747c0 1.7 0.905 2.73 2.518 2.73 1.314 0 2.285 -0.792 2.342 -1.939v-0.114H6.213c-0.048 0.615 -0.496 1.05 -1.186 1.05 -0.84 0 -1.319 -0.62 -1.319 -1.727zm6.14 0c0 -1.111 0.488 -1.753 1.318 -1.753 0.682 0 1.139 0.47 1.187 1.107H13.5V7c-0.053 -1.186 -1.024 -2 -2.342 -2C9.554 5 8.64 6.05 8.64 7.751v0.747c0 1.7 0.905 2.73 2.518 2.73 1.314 0 2.285 -0.792 2.342 -1.939v-0.114h-1.147c-0.048 0.615 -0.497 1.05 -1.187 1.05 -0.839 0 -1.318 -0.62 -1.318 -1.727z" stroke-width="1"></path><path d="M14 3a1 1 0 0 1 1 1v8a1 1 0 0 1 -1 1H2a1 1 0 0 1 -1 -1V4a1 1 0 0 1 1 -1zM2 2a2 2 0 0 0 -2 2v8a2 2 0 0 0 2 2h12a2 2 0 0 0 2 -2V4a2 2 0 0 0 -2 -2z" stroke-width="1"></path></svg>