<?xml version="1.0" encoding="UTF-8"?>
<!DOCTYPE svg PUBLIC "-//W3C//DTD SVG 1.1//EN" "http://www.w3.org/Graphics/SVG/1.1/DTD/svg11.dtd">
<svg xmlns="http://www.w3.org/2000/svg" version="1.1" width="1607px" height="659px" style="shape-rendering:geometricPrecision; text-rendering:geometricPrecision; image-rendering:optimizeQuality; fill-rule:evenodd; clip-rule:evenodd" xmlns:xlink="http://www.w3.org/1999/xlink">
<g><path style="opacity:0.902" fill="#e74141" d="M 1298.5,18.5 C 1303.21,18.1734 1307.88,18.5067 1312.5,19.5C 1400.45,107.737 1488.61,195.737 1577,283.5C 1580.68,287.679 1584.18,292.012 1587.5,296.5C 1589.02,300.207 1590.52,303.873 1592,307.5C 1592.69,308.357 1593.52,309.023 1594.5,309.5C 1595.83,323.5 1595.83,337.5 1594.5,351.5C 1593.83,351.833 1593.17,352.167 1592.5,352.5C 1589.12,361.574 1583.95,369.574 1577,376.5C 1489.27,463.567 1402.1,551.4 1315.5,640C 1309.84,640.499 1304.18,640.666 1298.5,640.5C 1298.17,620.156 1298.5,599.822 1299.5,579.5C 1377.4,500.9 1455.23,422.9 1533,345.5C 1536.17,341.667 1539.33,337.833 1542.5,334C 1542.28,330.766 1542.28,327.599 1542.5,324.5C 1541.9,323.205 1541.4,321.872 1541,320.5C 1460.33,240.5 1379.67,160.5 1299,80.5C 1298.5,59.836 1298.33,39.1694 1298.5,18.5 Z"/></g>
<g><path style="opacity:0.9" fill="#e74141" d="M 1303.5,148.5 C 1305.99,148.298 1308.32,148.798 1310.5,150C 1368.3,209.131 1426.46,267.298 1485,324.5C 1485.82,327.554 1485.65,330.554 1484.5,333.5C 1432.75,384.914 1381.09,436.914 1329.5,489.5C 1325.36,492.366 1322.03,495.866 1319.5,500C 1315.83,503 1312.17,506 1308.5,509C 1305.34,509.603 1302.34,509.103 1299.5,507.5C 1298.33,486.174 1298.17,464.841 1299,443.5C 1338.29,405.546 1376.79,367.046 1414.5,328C 1376.33,289.665 1338,251.499 1299.5,213.5C 1298.5,192.511 1298.17,171.511 1298.5,150.5C 1300.55,150.598 1302.22,149.931 1303.5,148.5 Z"/></g>
<g><path style="opacity:0.979" fill="#00da90" d="M 1137.5,152.5 C 1144.53,152.17 1151.53,152.503 1158.5,153.5C 1220.08,201.741 1281.08,250.741 1341.5,300.5C 1351.1,311.813 1354.26,324.813 1351,339.5C 1347.74,349.519 1341.91,357.686 1333.5,364C 1275.31,410.69 1216.98,457.19 1158.5,503.5C 1151.52,504.664 1144.52,504.831 1137.5,504C 1130.58,498.323 1126.08,491.157 1124,482.5C 1123.33,379.833 1123.33,277.167 1124,174.5C 1125.64,170.54 1127.31,166.54 1129,162.5C 1131.67,159 1134.5,155.667 1137.5,152.5 Z"/></g>
<g><path style="opacity:0.978" fill="#000000" d="M 706.5,193.5 C 721.5,193.5 736.5,193.5 751.5,193.5C 751.5,264.167 751.5,334.833 751.5,405.5C 736.5,405.5 721.5,405.5 706.5,405.5C 706.5,334.833 706.5,264.167 706.5,193.5 Z"/></g>
<g><path style="opacity:0.977" fill="#000000" d="M 11.5,198.5 C 27.8333,198.5 44.1667,198.5 60.5,198.5C 60.0253,244.539 60.5253,290.539 62,336.5C 69.5733,361.045 86.0733,370.878 111.5,366C 126.18,361.32 135.346,351.487 139,336.5C 140.475,290.539 140.975,244.539 140.5,198.5C 156.833,198.5 173.167,198.5 189.5,198.5C 189.667,243.501 189.5,288.501 189,333.5C 184.358,370.475 164.192,394.308 128.5,405C 100.525,411.744 73.8579,408.411 48.5,395C 26.7653,380.391 14.5987,359.891 12,333.5C 11.5,288.501 11.3333,243.501 11.5,198.5 Z"/></g>
<g><path style="opacity:0.979" fill="#000000" d="M 530.5,198.5 C 557.835,198.333 585.169,198.5 612.5,199C 669.601,202.415 693.768,232.249 685,288.5C 677.095,313.399 660.261,328.566 634.5,334C 616.296,336.98 597.963,338.147 579.5,337.5C 579.5,360.167 579.5,382.833 579.5,405.5C 563.167,405.5 546.833,405.5 530.5,405.5C 530.5,336.5 530.5,267.5 530.5,198.5 Z M 579.5,235.5 C 589.839,235.334 600.172,235.5 610.5,236C 628.852,238.517 638.185,249.017 638.5,267.5C 639.21,284.285 631.543,294.785 615.5,299C 603.53,300.205 591.53,300.705 579.5,300.5C 579.5,278.833 579.5,257.167 579.5,235.5 Z"/></g>
<g><path style="opacity:0.975" fill="#000000" d="M 831.5,255.5 C 850.72,253.137 868.053,257.637 883.5,269C 894.031,279.232 899.864,291.732 901,306.5C 901.5,339.498 901.667,372.498 901.5,405.5C 891.828,405.666 882.161,405.5 872.5,405C 870.376,403.878 868.543,402.378 867,400.5C 865.769,397.039 864.269,393.706 862.5,390.5C 843.951,406.78 822.618,411.946 798.5,406C 778.927,398.712 770.093,384.545 772,363.5C 773.425,352.484 778.592,343.651 787.5,337C 809.122,324.594 832.456,318.761 857.5,319.5C 859.825,296.652 849.825,287.152 827.5,291C 820.596,293.451 813.93,296.451 807.5,300C 799.469,302.594 792.636,300.761 787,294.5C 784.167,289.5 781.333,284.5 778.5,279.5C 787.912,270.455 798.912,263.955 811.5,260C 818.259,258.285 824.925,256.785 831.5,255.5 Z M 847.5,346.5 C 850.833,346.5 854.167,346.5 857.5,346.5C 857.666,353.175 857.5,359.842 857,366.5C 847.464,376.426 835.964,379.926 822.5,377C 814.416,372.402 812.583,365.902 817,357.5C 820.081,354.707 823.581,352.54 827.5,351C 834.201,349.03 840.868,347.53 847.5,346.5 Z"/></g>
<g><path style="opacity:0.983" fill="#000000" d="M 287.5,256.5 C 321.428,252.021 341.928,266.355 349,299.5C 349.5,334.832 349.667,370.165 349.5,405.5C 334.833,405.5 320.167,405.5 305.5,405.5C 305.942,371.805 305.442,338.138 304,304.5C 301.766,295.042 295.766,290.042 286,289.5C 276.153,290.347 267.82,294.347 261,301.5C 260.5,336.165 260.333,370.832 260.5,405.5C 245.5,405.5 230.5,405.5 215.5,405.5C 215.5,356.5 215.5,307.5 215.5,258.5C 226.505,258.333 237.505,258.5 248.5,259C 253.734,262.308 256.567,267.141 257,273.5C 265.555,264.809 275.722,259.142 287.5,256.5 Z"/></g>
<g><path style="opacity:0.975" fill="#000000" d="M 358.5,259.5 C 373.328,258.339 388.328,258.172 403.5,259C 405.081,259.707 406.581,260.54 408,261.5C 419.487,288.814 430.153,316.481 440,344.5C 449.47,317.091 459.136,289.758 469,262.5C 470.833,261.333 472.667,260.167 474.5,259C 488.167,258.333 501.833,258.333 515.5,259C 488.866,321.898 462.032,384.732 435,447.5C 433.363,449.81 431.196,451.31 428.5,452C 415.504,452.5 402.504,452.667 389.5,452.5C 398.141,432.382 407.475,412.549 417.5,393C 398.105,348.291 378.438,303.791 358.5,259.5 Z"/></g>
<g><path style="opacity:0.975" fill="#000000" d="M 909.5,259.5 C 924.328,258.339 939.328,258.172 954.5,259C 956.081,259.707 957.581,260.54 959,261.5C 970.487,288.814 981.153,316.481 991,344.5C 1000.47,317.091 1010.14,289.758 1020,262.5C 1021.83,261.333 1023.67,260.167 1025.5,259C 1039.17,258.333 1052.83,258.333 1066.5,259C 1039.87,321.898 1013.03,384.732 986,447.5C 984.363,449.81 982.196,451.31 979.5,452C 966.504,452.5 953.504,452.667 940.5,452.5C 949.141,432.382 958.475,412.549 968.5,393C 949.105,348.291 929.438,303.791 909.5,259.5 Z"/></g>
</svg>
