<?xml version="1.0" encoding="UTF-8"?>
<!DOCTYPE svg PUBLIC "-//W3C//DTD SVG 1.1//EN" "http://www.w3.org/Graphics/SVG/1.1/DTD/svg11.dtd">
<svg xmlns="http://www.w3.org/2000/svg" version="1.1" width="1641px" height="673px" style="shape-rendering:geometricPrecision; text-rendering:geometricPrecision; image-rendering:optimizeQuality; fill-rule:evenodd; clip-rule:evenodd" xmlns:xlink="http://www.w3.org/1999/xlink">
<g><path style="opacity:0.902" fill="#e74141" d="M 1327.5,30.5 C 1332.21,30.1734 1336.88,30.5067 1341.5,31.5C 1429.45,119.737 1517.61,207.737 1606,295.5C 1609.68,299.679 1613.18,304.012 1616.5,308.5C 1618.02,312.207 1619.52,315.873 1621,319.5C 1621.69,320.357 1622.52,321.023 1623.5,321.5C 1624.83,335.5 1624.83,349.5 1623.5,363.5C 1622.83,363.833 1622.17,364.167 1621.5,364.5C 1618.12,373.574 1612.95,381.574 1606,388.5C 1518.27,475.567 1431.1,563.4 1344.5,652C 1338.84,652.499 1333.18,652.666 1327.5,652.5C 1327.17,632.156 1327.5,611.822 1328.5,591.5C 1406.4,512.9 1484.23,434.9 1562,357.5C 1565.17,353.667 1568.33,349.833 1571.5,346C 1571.28,342.766 1571.28,339.599 1571.5,336.5C 1570.9,335.205 1570.4,333.872 1570,332.5C 1489.33,252.5 1408.67,172.5 1328,92.5C 1327.5,71.836 1327.33,51.1694 1327.5,30.5 Z"/></g>
<g><path style="opacity:0.9" fill="#e74141" d="M 1332.5,160.5 C 1334.99,160.298 1337.32,160.798 1339.5,162C 1397.3,221.131 1455.46,279.298 1514,336.5C 1514.82,339.554 1514.65,342.554 1513.5,345.5C 1461.75,396.914 1410.09,448.914 1358.5,501.5C 1354.36,504.366 1351.03,507.866 1348.5,512C 1344.83,515 1341.17,518 1337.5,521C 1334.34,521.603 1331.34,521.103 1328.5,519.5C 1327.33,498.174 1327.17,476.841 1328,455.5C 1367.29,417.546 1405.79,379.046 1443.5,340C 1405.33,301.665 1367,263.499 1328.5,225.5C 1327.5,204.511 1327.17,183.511 1327.5,162.5C 1329.55,162.598 1331.22,161.931 1332.5,160.5 Z"/></g>
<g><path style="opacity:0.979" fill="#00da90" d="M 1166.5,164.5 C 1173.53,164.17 1180.53,164.503 1187.5,165.5C 1249.08,213.741 1310.08,262.741 1370.5,312.5C 1380.1,323.813 1383.26,336.813 1380,351.5C 1376.74,361.519 1370.91,369.686 1362.5,376C 1304.31,422.69 1245.98,469.19 1187.5,515.5C 1180.52,516.664 1173.52,516.831 1166.5,516C 1159.58,510.323 1155.08,503.157 1153,494.5C 1152.33,391.833 1152.33,289.167 1153,186.5C 1154.64,182.54 1156.31,178.54 1158,174.5C 1160.67,171 1163.5,167.667 1166.5,164.5 Z"/></g>
<g><path style="opacity:0.978" fill="#fefffe" d="M 735.5,205.5 C 750.5,205.5 765.5,205.5 780.5,205.5C 780.5,276.167 780.5,346.833 780.5,417.5C 765.5,417.5 750.5,417.5 735.5,417.5C 735.5,346.833 735.5,276.167 735.5,205.5 Z"/></g>
<g><path style="opacity:0.977" fill="#fefffe" d="M 40.5,210.5 C 56.8333,210.5 73.1667,210.5 89.5,210.5C 89.0253,256.539 89.5253,302.539 91,348.5C 98.5733,373.045 115.073,382.878 140.5,378C 155.18,373.32 164.346,363.487 168,348.5C 169.475,302.539 169.975,256.539 169.5,210.5C 185.833,210.5 202.167,210.5 218.5,210.5C 218.667,255.501 218.5,300.501 218,345.5C 213.358,382.475 193.192,406.308 157.5,417C 129.525,423.744 102.858,420.411 77.5,407C 55.7653,392.391 43.5987,371.891 41,345.5C 40.5,300.501 40.3333,255.501 40.5,210.5 Z"/></g>
<g><path style="opacity:0.979" fill="#fefffe" d="M 559.5,210.5 C 586.835,210.333 614.169,210.5 641.5,211C 698.601,214.415 722.768,244.249 714,300.5C 706.095,325.399 689.261,340.566 663.5,346C 645.296,348.98 626.963,350.147 608.5,349.5C 608.5,372.167 608.5,394.833 608.5,417.5C 592.167,417.5 575.833,417.5 559.5,417.5C 559.5,348.5 559.5,279.5 559.5,210.5 Z M 608.5,247.5 C 618.839,247.334 629.172,247.5 639.5,248C 657.852,250.517 667.185,261.017 667.5,279.5C 668.21,296.285 660.543,306.785 644.5,311C 632.53,312.205 620.53,312.705 608.5,312.5C 608.5,290.833 608.5,269.167 608.5,247.5 Z"/></g>
<g><path style="opacity:0.975" fill="#fefffe" d="M 860.5,267.5 C 879.72,265.137 897.053,269.637 912.5,281C 923.031,291.232 928.864,303.732 930,318.5C 930.5,351.498 930.667,384.498 930.5,417.5C 920.828,417.666 911.161,417.5 901.5,417C 899.376,415.878 897.543,414.378 896,412.5C 894.769,409.039 893.269,405.706 891.5,402.5C 872.951,418.78 851.618,423.946 827.5,418C 807.927,410.712 799.093,396.545 801,375.5C 802.425,364.484 807.592,355.651 816.5,349C 838.122,336.594 861.456,330.761 886.5,331.5C 888.825,308.652 878.825,299.152 856.5,303C 849.596,305.451 842.93,308.451 836.5,312C 828.469,314.594 821.636,312.761 816,306.5C 813.167,301.5 810.333,296.5 807.5,291.5C 816.912,282.455 827.912,275.955 840.5,272C 847.259,270.285 853.925,268.785 860.5,267.5 Z M 876.5,358.5 C 879.833,358.5 883.167,358.5 886.5,358.5C 886.666,365.175 886.5,371.842 886,378.5C 876.464,388.426 864.964,391.926 851.5,389C 843.416,384.402 841.583,377.902 846,369.5C 849.081,366.707 852.581,364.54 856.5,363C 863.201,361.03 869.868,359.53 876.5,358.5 Z"/></g>
<g><path style="opacity:0.983" fill="#fefffe" d="M 316.5,268.5 C 350.428,264.021 370.928,278.355 378,311.5C 378.5,346.832 378.667,382.165 378.5,417.5C 363.833,417.5 349.167,417.5 334.5,417.5C 334.942,383.805 334.442,350.138 333,316.5C 330.766,307.042 324.766,302.042 315,301.5C 305.153,302.347 296.82,306.347 290,313.5C 289.5,348.165 289.333,382.832 289.5,417.5C 274.5,417.5 259.5,417.5 244.5,417.5C 244.5,368.5 244.5,319.5 244.5,270.5C 255.505,270.333 266.505,270.5 277.5,271C 282.734,274.308 285.567,279.141 286,285.5C 294.555,276.809 304.722,271.142 316.5,268.5 Z"/></g>
<g><path style="opacity:0.975" fill="#fefffe" d="M 387.5,271.5 C 402.328,270.339 417.328,270.172 432.5,271C 434.081,271.707 435.581,272.54 437,273.5C 448.487,300.814 459.153,328.481 469,356.5C 478.47,329.091 488.136,301.758 498,274.5C 499.833,273.333 501.667,272.167 503.5,271C 517.167,270.333 530.833,270.333 544.5,271C 517.866,333.898 491.032,396.732 464,459.5C 462.363,461.81 460.196,463.31 457.5,464C 444.504,464.5 431.504,464.667 418.5,464.5C 427.141,444.382 436.475,424.549 446.5,405C 427.105,360.291 407.438,315.791 387.5,271.5 Z"/></g>
<g><path style="opacity:0.975" fill="#fefffe" d="M 938.5,271.5 C 953.328,270.339 968.328,270.172 983.5,271C 985.081,271.707 986.581,272.54 988,273.5C 999.487,300.814 1010.15,328.481 1020,356.5C 1029.47,329.091 1039.14,301.758 1049,274.5C 1050.83,273.333 1052.67,272.167 1054.5,271C 1068.17,270.333 1081.83,270.333 1095.5,271C 1068.87,333.898 1042.03,396.732 1015,459.5C 1013.36,461.81 1011.2,463.31 1008.5,464C 995.504,464.5 982.504,464.667 969.5,464.5C 978.141,444.382 987.475,424.549 997.5,405C 978.105,360.291 958.438,315.791 938.5,271.5 Z"/></g>
</svg>
